<svg xmlns="http://www.w3.org/2000/svg" xmlns:xlink="http://www.w3.org/1999/xlink" version="1.1" id="Layer_1" x="0px" y="0px" width="100px" height="100px" viewBox="0 0 100 100" enable-background="new 0 0 100 100" xml:space="preserve">

<linearGradient id="grad">
  <stop offset="0" stop-color="blue" />
  <stop offset="0.3" stop-color="yellow" />
  <stop offset="0.6" stop-color="orange" />
  <stop offset="1" stop-color="red" />
</linearGradient>

<path fill="url(#grad)" fill-rule="evenodd" clip-rule="evenodd" d="M44.516,31.751c0.222-1.221,0.051-2.647,0.629-3.085  c3.939-2.996,2.395-7.185,2.547-10.948c0.173-4.278,0.04-8.569,0.04-12.856c0.449-0.012,0.897-0.025,1.346-0.037  c0,1.858,0,3.715,0,5.572c0,3.5-0.029,7.001,0.008,10.501c0.028,2.63-0.688,5.416,2.296,7.288c0.75,0.472,0.689,2.234,1.094,3.745  c9.67,1.735,17.663,6.536,22.856,15.403c3.956,6.753,5.024,14.082,3.653,21.683C76.38,83.462,62.521,94.543,47.829,94.167  C33.033,93.786,19.832,82.505,17.741,68.18C15.441,52.412,23.947,35.872,44.516,31.751z M41.678,68.753c4.395,0,8.43,0,12.503,0  c0-4.382,0-8.425,0-12.421c-4.34,0-8.372,0-12.503,0C41.678,60.554,41.678,64.41,41.678,68.753z M67.215,57.275  c-3.87-0.371-7.401-0.708-11.062-1.059c0,4.325,0,8.272,0,12.72c3.766-0.368,7.288-0.712,11.062-1.08  C67.215,64.336,67.215,61.134,67.215,57.275z M54.402,54.504c-0.307-3.197-0.427-5.928-0.915-8.591  c-0.138-0.755-1.291-1.782-2.072-1.874c-2.203-0.261-4.477-0.272-6.677-0.015c-0.806,0.094-2.003,1.131-2.135,1.891  c-0.479,2.737-0.576,5.539-0.842,8.589c3.19,0,6.026,0,8.862,0C51.719,54.504,52.816,54.504,54.402,54.504z M54.967,81.457  c10.589-1.614,10.611-0.769,11.803-11.938c-3.569,0.351-7.077,0.696-10.68,1.05C55.715,74.215,55.361,77.627,54.967,81.457z   M29.844,69.515c1.593,10.633,1.79,10.84,11.187,11.746c-0.352-3.606-0.695-7.132-1.05-10.771  C36.53,70.158,33.356,69.854,29.844,69.515z M54.944,44.639c0.406,3.524,0.771,6.68,1.151,9.972  c3.654,0.313,7.08,0.607,10.566,0.906C65.596,45.785,65.518,45.675,54.944,44.639z M41.112,44.418  c-9.364,0.974-11.391,3.175-10.487,11.127c3.149-0.332,6.297-0.666,9.416-0.995C40.418,50.977,40.744,47.897,41.112,44.418z   M43.208,42.297c3.361,0,6.425,0,9.499,0c-0.37-6.687-0.768-7.311-4.53-7.295C43.903,35.02,43.438,35.683,43.208,42.297z   M27.876,57.853c-7.508,0.723-7.881,1.051-7.273,6.321c0.279,2.425,2.871,3.366,7.273,2.565  C27.876,63.797,27.876,60.83,27.876,57.853z M75.92,58.958c-2.292-0.436-4.533-0.859-6.866-1.301c0,3.355,0,6.288,0,9.198  C75.874,67.638,76.634,66.809,75.92,58.958z M43.283,83.738c0.935,7.139,1.18,7.468,6.057,6.939c4.744-0.513,2.12-4.499,3.935-6.939  C49.487,83.738,46.552,83.738,43.283,83.738z M63.602,81.796c-9.116,0.988-10.096,1.819-9.698,8.238  C60.266,89.073,61.5,88.024,63.602,81.796z M32.942,44.421c8.759-0.934,10.076-2.148,9.236-8.438  C36.874,36.34,34.014,39.412,32.942,44.421z M53.848,35.806c-0.068,6.778,2.054,8.481,9.573,7.941  C62.399,38.657,59.069,36.282,53.848,35.806z M75.263,68.042c-7.146,1.199-7.605,1.803-7.891,10.018  C73.593,76.071,75.113,74.192,75.263,68.042z M75.324,56.91c-0.291-5.313-3.229-7.936-7.888-9.059  C68.691,57.067,67.608,56.102,75.324,56.91z M25.422,46.427c0.259,0.256,0.519,0.51,0.778,0.764c3.548-0.944,6.37-2.584,6.5-7.642  C29.981,42.119,27.702,44.272,25.422,46.427z M71.571,78.751c-4.763,0.624-6.672,2.876-6.599,7  C66.972,83.629,68.973,81.508,71.571,78.751z M25.572,79.477c2.078,2.048,4.156,4.098,6.939,6.841  C31.999,81.316,29.718,79.469,25.572,79.477z M69.573,47.638c0.43-0.373,0.86-0.746,1.292-1.119  c-1.945-2.183-3.89-4.365-5.836-6.547c-0.471,0.459-0.939,0.919-1.409,1.378C65.604,43.447,67.587,45.543,69.573,47.638z   M51.695,30.17c-1.69-1.004-2.597-1.978-3.349-1.871c-0.778,0.112-1.402,1.276-2.093,1.98c0.688,0.548,1.36,1.512,2.066,1.535  C49.146,31.842,50,31.049,51.695,30.17z"/>
<path fill="#F00" fill-rule="evenodd" clip-rule="evenodd" d="M75.909,42.665c-0.561-4.304-2.524-6.816-6.996-7.274  c4.646-0.028,6.375-2.592,6.598-7.522c1.87,6.308,1.87,6.308,7.722,7.65C78.53,36.318,75.358,37.687,75.909,42.665z"/>
<path fill="#0F0" fill-rule="evenodd" clip-rule="evenodd" d="M25.515,24.186c-0.562-4.304-2.524-6.816-6.997-7.273  c4.647-0.028,6.375-2.592,6.598-7.523c1.87,6.309,1.87,6.309,7.721,7.65C28.134,17.84,24.964,19.209,25.515,24.186z"/>
<path fill="#00F" fill-rule="evenodd" clip-rule="evenodd" d="M18.235,95.858c-0.561-4.305-2.522-6.816-6.996-7.273  c4.647-0.028,6.375-2.593,6.598-7.523c1.871,6.308,1.871,6.308,7.721,7.649C20.855,89.513,17.685,90.881,18.235,95.858z"/>
<path fill="#0FF" fill-rule="evenodd" clip-rule="evenodd" d="M86.549,85.22c-0.562-4.305-2.524-6.816-6.998-7.274  c4.648-0.027,6.375-2.591,6.598-7.522c1.871,6.31,1.871,6.31,7.723,7.65C89.168,78.874,85.997,80.242,86.549,85.22z"/>
</svg>