<svg xmlns="http://www.w3.org/2000/svg" xmlns:xlink="http://www.w3.org/1999/xlink" version="1.1" id="Layer_1" x="0px" y="0px" width="100px" height="100px" viewBox="0 0 100 100" enable-background="new 0 0 100 100" xml:space="preserve">
<path d="M48.01,25.991c-0.29-0.38-0.54-0.8-0.75-1.23L48.01,25.991z"/>
<path d="M71.74,94.021c0.77,2.12-0.32,4.46-2.44,5.23c-0.46,0.17-0.93,0.25-1.399,0.25c-1.67,0-3.23-1.03-3.83-2.69l-0.78-2.15  l-2.11,0.421c-0.239-2.221-2.59-11.83-4.069-17.431l-1.38-3.8c-0.07-0.21-0.131-0.41-0.171-0.62l-2.35-12.13L51,61.081L40.41,73.15  l-0.43,2.061c-0.011,0.02-0.021,0.05-0.021,0.08c-0.85,5.149-0.79,11.58-0.74,15.02l-2.43,0.03l-0.38,1.83  c-0.46,2.21-2.63,3.62-4.83,3.16c-2.21-0.471-3.62-2.631-3.16-4.841l0.01-0.04l-2.54,0.03c1.74-3.439,4.44-11.02,5.95-16.25  c0-0.02,0-0.03,0.01-0.04l0.79-3.77c0.15-0.69,0.471-1.32,0.931-1.851l9.93-11.319l0.01-0.011c0.19-0.51,0.26-1.09,0.24-1.72  c-2.12-0.8-3.57-1.5-3.57-1.5c-1.14-2.75-0.02-19.66,3.23-25.14l-6.391-10.27c-0.22-0.35-0.35-0.74-0.399-1.14l-1.53-13.95  c-0.16-1.5,0.91-2.84,2.41-3c1.5-0.17,2.84,0.91,3,2.4l1.46,13.34l5.271,8.45c0.01,0.01,0.01,0.03,0.029,0.05  c0.21,0.43,0.46,0.85,0.75,1.23c0.021,0.03,0.04,0.06,0.061,0.08l0.069,0.11h0.021c0.56,0.72,1.26,1.33,2.05,1.81  c-0.06,0.18-0.13,0.39-0.19,0.64c-0.21,0.83-0.399,2.03-0.539,3.31c-0.29,2.54-0.431,5.41-0.301,6.45  c0.33-1.18,1.38-3.82,2.431-6.07c0.479-1.06,0.96-2.03,1.37-2.72c0.109-0.21,0.22-0.39,0.319-0.54c0.311,0.04,0.62,0.06,0.94,0.06  c1.49,0,2.89-0.42,4.069-1.15l0.71,0.13c0.61,0.1,1.171,0.42,1.58,0.89l8,9.19c0.261,0.3,0.46,0.66,0.561,1.06l3.92,14.11  c0.4,1.45-0.45,2.95-1.9,3.35c-0.239,0.07-0.489,0.101-0.729,0.101c-1.19,0-2.28-0.79-2.62-1.99l-3.75-13.53l-4.88-5.61  c-0.33,3.92-0.59,10.11,0.43,15.35c0.13,0.67,0.2,1.29,0.21,1.84c0.01,0.01,0.01,0.01,0.01,0.02c0.25,0.899,0.46,1.84,0.601,2.83  c0.06,0.18,0.109,0.37,0.149,0.569l2.92,15.08l3.12,8.601c1.67,3.29,4.091,7.43,7.471,12.56l-2.721,0.54L71.74,94.021z"/>
<g>
	<path d="M60.79,21.331c0,2.95-1.94,5.44-4.62,6.27c-0.01-0.01-0.01,0-0.02,0c-0.601,0.18-1.25,0.28-1.91,0.28   c-1.46,0-2.82-0.48-3.9-1.31h-0.01c-1.6-1.19-2.63-3.09-2.63-5.24c0-3.61,2.93-6.54,6.54-6.54   C57.86,14.791,60.79,17.721,60.79,21.331z"/>
	<path fill="#000000" d="M47.26,24.761c0.21,0.43,0.46,0.85,0.75,1.23L47.26,24.761z"/>
</g>
</svg>